<svg width="24" height="24" viewBox="0 0 24 24" fill="none" xmlns="http://www.w3.org/2000/svg">
<g id="Check">
<path id="Vector" d="M9.74973 18.0002C9.55094 17.9975 9.36034 17.9206 9.21535 17.7846L3.96535 12.5346C3.84575 12.3889 3.78464 12.2039 3.79388 12.0156C3.80313 11.8273 3.88208 11.6492 4.01539 11.5159C4.14869 11.3826 4.3268 11.3036 4.51509 11.2944C4.70338 11.2851 4.88838 11.3462 5.0341 11.4658L9.74973 16.1908L19.7154 6.21584C19.8611 6.09624 20.0461 6.03512 20.2344 6.04437C20.4226 6.05362 20.6008 6.13257 20.7341 6.26587C20.8674 6.39917 20.9463 6.57729 20.9556 6.76558C20.9648 6.95387 20.9037 7.13887 20.7841 7.28459L10.2841 17.7846C10.1391 17.9206 9.94851 17.9975 9.74973 18.0002Z" fill="#12B76A"/>
</g>
</svg>
