<svg width="25" height="24" viewBox="0 0 25 24" fill="none" xmlns="http://www.w3.org/2000/svg">
<g id="MagnifyingGlass">
<path id="Vector" d="M16.6494 10.5C16.6494 11.5384 16.3415 12.5534 15.7647 13.4168C15.1878 14.2801 14.3678 14.953 13.4085 15.3504C12.4492 15.7477 11.3936 15.8517 10.3752 15.6491C9.35682 15.4466 8.42136 14.9466 7.68713 14.2123C6.95291 13.4781 6.45289 12.5426 6.25032 11.5242C6.04775 10.5058 6.15172 9.45024 6.54908 8.49093C6.94644 7.53162 7.61934 6.71168 8.4827 6.1348C9.34606 5.55792 10.3611 5.25002 11.3994 5.25002C12.7918 5.25002 14.1272 5.80314 15.1118 6.78771C16.0963 7.77227 16.6494 9.10763 16.6494 10.5ZM22.4301 21.5306C22.3604 21.6004 22.2777 21.6557 22.1866 21.6934C22.0956 21.7312 21.998 21.7506 21.8994 21.7506C21.8009 21.7506 21.7033 21.7312 21.6122 21.6934C21.5212 21.6557 21.4385 21.6004 21.3688 21.5306L16.6757 16.8366C15.0436 18.1944 12.9509 18.8707 10.8329 18.7249C8.71485 18.5791 6.73455 17.6224 5.3039 16.0538C3.87325 14.4852 3.10238 12.4254 3.15164 10.303C3.20089 8.18051 4.06649 6.15873 5.56836 4.65818C7.07024 3.15763 9.09279 2.29382 11.2153 2.24644C13.3378 2.19906 15.3969 2.97175 16.9642 4.40379C18.5316 5.83582 19.4865 7.81696 19.6304 9.93512C19.7744 12.0533 19.0962 14.1454 17.7369 15.7763L22.4301 20.4694C22.4998 20.539 22.5551 20.6218 22.5929 20.7128C22.6306 20.8039 22.65 20.9015 22.65 21C22.65 21.0986 22.6306 21.1962 22.5929 21.2872C22.5551 21.3783 22.4998 21.461 22.4301 21.5306ZM11.3994 17.25C12.7345 17.25 14.0395 16.8541 15.1495 16.1124C16.2596 15.3707 17.1247 14.3165 17.6356 13.0831C18.1465 11.8497 18.2802 10.4925 18.0197 9.18316C17.7593 7.87379 17.1164 6.67105 16.1724 5.72705C15.2284 4.78304 14.0257 4.14017 12.7163 3.87972C11.4069 3.61927 10.0497 3.75294 8.81633 4.26383C7.58293 4.77472 6.52872 5.63989 5.78702 6.74992C5.04532 7.85995 4.64944 9.16499 4.64944 10.5C4.65143 12.2896 5.36322 14.0054 6.62866 15.2708C7.8941 16.5362 9.60984 17.248 11.3994 17.25Z" fill="#667085"/>
</g>
</svg>
